<svg xmlns="http://www.w3.org/2000/svg" xmlns:xlink="http://www.w3.org/1999/xlink" width="1080" zoomAndPan="magnify" viewBox="0 0 810 809.999993" height="1080" preserveAspectRatio="xMidYMid meet" version="1.0"><defs><g/><clipPath id="f75cd61ae9"><rect x="0" width="528" y="0" height="172"/></clipPath><clipPath id="8f438173d4"><path d="M 127.238281 1.105469 L 306.242188 1.105469 L 306.242188 338.460938 L 127.238281 338.460938 Z M 127.238281 1.105469 " clip-rule="nonzero"/></clipPath><clipPath id="38a457cd51"><path d="M 267.933594 1.105469 L 677.421875 1.105469 L 677.421875 304.035156 L 267.933594 304.035156 Z M 267.933594 1.105469 " clip-rule="nonzero"/></clipPath><clipPath id="a89d992bbe"><path d="M 532.996094 41.15625 L 678.890625 41.15625 L 678.890625 338.460938 L 532.996094 338.460938 Z M 532.996094 41.15625 " clip-rule="nonzero"/></clipPath><clipPath id="2783d86792"><path d="M 479.207031 228.421875 L 548.054688 228.421875 L 548.054688 338.460938 L 479.207031 338.460938 Z M 479.207031 228.421875 " clip-rule="nonzero"/></clipPath><clipPath id="7dd95ce08c"><path d="M 406.226562 228.421875 L 454.421875 228.421875 L 454.421875 338.460938 L 406.226562 338.460938 Z M 406.226562 228.421875 " clip-rule="nonzero"/></clipPath><clipPath id="35c9744035"><path d="M 327.742188 228.421875 L 382.820312 228.421875 L 382.820312 338.460938 L 327.742188 338.460938 Z M 327.742188 228.421875 " clip-rule="nonzero"/></clipPath><clipPath id="d3a5f34fb7"><path d="M 579.53125 634.105469 L 641.0625 634.105469 L 641.0625 695.636719 L 579.53125 695.636719 Z M 579.53125 634.105469 " clip-rule="nonzero"/></clipPath><clipPath id="bd8406adc9"><path d="M 610.296875 634.105469 C 593.304688 634.105469 579.53125 647.878906 579.53125 664.871094 C 579.53125 681.863281 593.304688 695.636719 610.296875 695.636719 C 627.289062 695.636719 641.0625 681.863281 641.0625 664.871094 C 641.0625 647.878906 627.289062 634.105469 610.296875 634.105469 Z M 610.296875 634.105469 " clip-rule="nonzero"/></clipPath><clipPath id="fee9d4a049"><rect x="0" width="268" y="0" height="172"/></clipPath><clipPath id="78be428bc7"><rect x="0" width="671" y="0" height="84"/></clipPath><clipPath id="2ea5e10369"><path d="M 428.269531 715.34375 L 489.804688 715.34375 L 489.804688 776.878906 L 428.269531 776.878906 Z M 428.269531 715.34375 " clip-rule="nonzero"/></clipPath><clipPath id="dd8345c43d"><path d="M 459.035156 715.34375 C 442.042969 715.34375 428.269531 729.121094 428.269531 746.109375 C 428.269531 763.101562 442.042969 776.878906 459.035156 776.878906 C 476.027344 776.878906 489.804688 763.101562 489.804688 746.109375 C 489.804688 729.121094 476.027344 715.34375 459.035156 715.34375 Z M 459.035156 715.34375 " clip-rule="nonzero"/></clipPath><clipPath id="4ab62447d5"><path d="M 343.015625 664.878906 L 404.546875 664.878906 L 404.546875 726.414062 L 343.015625 726.414062 Z M 343.015625 664.878906 " clip-rule="nonzero"/></clipPath><clipPath id="fe062ec9e5"><path d="M 373.78125 664.878906 C 356.789062 664.878906 343.015625 678.65625 343.015625 695.644531 C 343.015625 712.636719 356.789062 726.414062 373.78125 726.414062 C 390.773438 726.414062 404.546875 712.636719 404.546875 695.644531 C 404.546875 678.65625 390.773438 664.878906 373.78125 664.878906 Z M 373.78125 664.878906 " clip-rule="nonzero"/></clipPath><clipPath id="f08f80a4a1"><path d="M 204.71875 613.464844 L 266.253906 613.464844 L 266.253906 674.996094 L 204.71875 674.996094 Z M 204.71875 613.464844 " clip-rule="nonzero"/></clipPath><clipPath id="40cee68755"><path d="M 235.484375 613.464844 C 218.496094 613.464844 204.71875 627.238281 204.71875 644.230469 C 204.71875 661.222656 218.496094 674.996094 235.484375 674.996094 C 252.476562 674.996094 266.253906 661.222656 266.253906 644.230469 C 266.253906 627.238281 252.476562 613.464844 235.484375 613.464844 Z M 235.484375 613.464844 " clip-rule="nonzero"/></clipPath><clipPath id="8feefb80e1"><rect x="0" width="798" y="0" height="787"/></clipPath></defs><g transform="matrix(1, 0, 0, 1, 0, 16)"><g clip-path="url(#8feefb80e1)"><g transform="matrix(1, 0, 0, 1, 9, 361)"><g clip-path="url(#f75cd61ae9)"><g fill="#40affb" fill-opacity="1"><g transform="translate(8.310651, 119.44641)"><g><path d="M 42.359375 0 L -3.734375 -109.890625 L 24.515625 -109.890625 L 52.21875 -37.703125 L 79.921875 -109.890625 L 108.15625 -109.890625 L 62.078125 0 Z M 42.359375 0 "/></g></g></g><g fill="#40affb" fill-opacity="1"><g transform="translate(115.00293, 119.44641)"><g><path d="M 33.03125 -109.890625 L 33.03125 0 L 7.984375 0 L 7.984375 -109.890625 Z M 33.03125 -109.890625 "/></g></g></g><g fill="#40affb" fill-opacity="1"><g transform="translate(155.629096, 119.44641)"><g><path d="M 48.484375 -111.890625 C 54.429688 -111.890625 60.242188 -111.023438 65.921875 -109.296875 C 71.609375 -107.566406 75.832031 -105.859375 78.59375 -104.171875 L 82.578125 -101.5 L 72.46875 -81.515625 C 71.664062 -82.046875 70.550781 -82.734375 69.125 -83.578125 C 67.707031 -84.421875 65.046875 -85.550781 61.140625 -86.96875 C 57.234375 -88.394531 53.59375 -89.109375 50.21875 -89.109375 C 46.039062 -89.109375 42.816406 -88.21875 40.546875 -86.4375 C 38.285156 -84.664062 37.15625 -82.269531 37.15625 -79.25 C 37.15625 -77.738281 37.6875 -76.335938 38.75 -75.046875 C 39.820312 -73.765625 41.644531 -72.390625 44.21875 -70.921875 C 46.800781 -69.460938 49.066406 -68.285156 51.015625 -67.390625 C 52.972656 -66.503906 55.992188 -65.175781 60.078125 -63.40625 C 67.179688 -60.382812 73.238281 -56.273438 78.25 -51.078125 C 83.269531 -45.890625 85.78125 -40.007812 85.78125 -33.4375 C 85.78125 -27.125 84.644531 -21.613281 82.375 -16.90625 C 80.113281 -12.207031 77.007812 -8.523438 73.0625 -5.859375 C 69.113281 -3.191406 64.738281 -1.21875 59.9375 0.0625 C 55.144531 1.351562 49.953125 2 44.359375 2 C 39.554688 2 34.847656 1.507812 30.234375 0.53125 C 25.617188 -0.445312 21.753906 -1.664062 18.640625 -3.125 C 15.535156 -4.59375 12.738281 -6.035156 10.25 -7.453125 C 7.769531 -8.878906 5.953125 -10.082031 4.796875 -11.0625 L 3.0625 -12.515625 L 15.578125 -33.5625 C 16.648438 -32.675781 18.117188 -31.546875 19.984375 -30.171875 C 21.847656 -28.796875 25.15625 -26.953125 29.90625 -24.640625 C 34.65625 -22.328125 38.847656 -21.171875 42.484375 -21.171875 C 53.054688 -21.171875 58.34375 -24.769531 58.34375 -31.96875 C 58.34375 -33.476562 57.960938 -34.875 57.203125 -36.15625 C 56.453125 -37.445312 55.117188 -38.734375 53.203125 -40.015625 C 51.296875 -41.304688 49.609375 -42.328125 48.140625 -43.078125 C 46.679688 -43.835938 44.285156 -44.992188 40.953125 -46.546875 C 37.628906 -48.109375 35.164062 -49.285156 33.5625 -50.078125 C 26.90625 -53.367188 21.753906 -57.476562 18.109375 -62.40625 C 14.472656 -67.332031 12.65625 -72.640625 12.65625 -78.328125 C 12.65625 -88.179688 16.296875 -96.238281 23.578125 -102.5 C 30.859375 -108.757812 39.160156 -111.890625 48.484375 -111.890625 Z M 48.484375 -111.890625 "/></g></g></g><g fill="#40affb" fill-opacity="1"><g transform="translate(247.403228, 119.44641)"><g><path d="M 33.03125 -109.890625 L 33.03125 0 L 7.984375 0 L 7.984375 -109.890625 Z M 33.03125 -109.890625 "/></g></g></g><g fill="#40affb" fill-opacity="1"><g transform="translate(290.693579, 119.44641)"><g><path d="M 3.0625 -55.015625 C 3.0625 -70.910156 8.476562 -84.363281 19.3125 -95.375 C 30.144531 -106.382812 43.195312 -111.890625 58.46875 -111.890625 C 73.832031 -111.890625 86.882812 -106.40625 97.625 -95.4375 C 108.375 -84.46875 113.75 -70.992188 113.75 -55.015625 C 113.75 -38.941406 108.460938 -25.421875 97.890625 -14.453125 C 87.328125 -3.484375 74.1875 2 58.46875 2 C 42.394531 2 29.140625 -3.4375 18.703125 -14.3125 C 8.273438 -25.195312 3.0625 -38.765625 3.0625 -55.015625 Z M 30.109375 -55.015625 C 30.109375 -49.242188 30.992188 -43.984375 32.765625 -39.234375 C 34.546875 -34.484375 37.65625 -30.460938 42.09375 -27.171875 C 46.53125 -23.890625 51.988281 -22.25 58.46875 -22.25 C 67.800781 -22.25 74.84375 -25.441406 79.59375 -31.828125 C 84.34375 -38.222656 86.71875 -45.953125 86.71875 -55.015625 C 86.71875 -63.984375 84.296875 -71.6875 79.453125 -78.125 C 74.617188 -84.5625 67.625 -87.78125 58.46875 -87.78125 C 49.414062 -87.78125 42.425781 -84.5625 37.5 -78.125 C 32.570312 -71.6875 30.109375 -63.984375 30.109375 -55.015625 Z M 30.109375 -55.015625 "/></g></g></g><g fill="#40affb" fill-opacity="1"><g transform="translate(409.773177, 119.44641)"><g><path d="M 33.03125 -68.203125 L 33.03125 0 L 7.984375 0 L 7.984375 -109.890625 L 33.03125 -109.890625 L 76.71875 -41.6875 L 76.984375 -41.6875 L 76.984375 -109.890625 L 102.03125 -109.890625 L 102.03125 0 L 76.984375 0 L 33.296875 -68.203125 Z M 33.03125 -68.203125 "/></g></g></g></g></g><g clip-path="url(#8f438173d4)"><path fill="#3eb1fb" d="M 673.246094 205.167969 C 668.332031 193.550781 661.296875 183.117188 652.339844 174.160156 C 643.382812 165.203125 632.949219 158.167969 621.332031 153.253906 C 612.378906 149.464844 603.011719 147.070312 593.382812 146.089844 C 592.4375 137.796875 590.320312 129.726562 587.050781 122 C 582.625 111.539062 576.292969 102.148438 568.234375 94.085938 C 560.171875 86.023438 550.78125 79.695312 540.320312 75.269531 C 529.484375 70.6875 517.984375 68.363281 506.132812 68.363281 C 496.8125 68.363281 487.726562 69.796875 479.011719 72.632812 C 467.105469 52.636719 450.5625 35.703125 430.738281 23.300781 C 407.539062 8.789062 380.75 1.117188 353.257812 1.117188 C 333.515625 1.117188 314.355469 4.988281 296.316406 12.617188 C 278.898438 19.984375 263.253906 30.53125 249.824219 43.960938 C 236.390625 57.394531 225.847656 73.035156 218.480469 90.457031 C 210.871094 108.441406 207.003906 127.535156 206.980469 147.210938 C 186.464844 150.996094 167.679688 161.28125 153.292969 176.773438 C 136.492188 194.871094 127.234375 218.441406 127.234375 243.148438 C 127.234375 256.273438 129.800781 269.015625 134.859375 281.015625 C 139.742188 292.605469 146.734375 303.015625 155.640625 311.964844 C 164.546875 320.914062 174.921875 327.957031 186.484375 332.898438 C 198.335938 337.960938 210.925781 340.59375 223.902344 340.707031 C 224.046875 340.714844 224.191406 340.71875 224.339844 340.71875 L 583.351562 340.71875 C 596.519531 340.71875 609.296875 338.136719 621.332031 333.046875 C 632.953125 328.132812 643.386719 321.097656 652.34375 312.140625 C 661.300781 303.183594 668.332031 292.75 673.25 281.128906 C 678.339844 269.09375 680.917969 256.316406 680.917969 243.148438 C 680.917969 229.984375 678.335938 217.203125 673.246094 205.167969 Z M 637.339844 297.144531 C 622.917969 311.566406 603.746094 319.507812 583.347656 319.507812 L 224.695312 319.507812 C 224.59375 319.503906 224.492188 319.5 224.390625 319.5 C 204.082031 319.394531 185.003906 311.402344 170.675781 297.003906 C 156.339844 282.597656 148.445312 263.472656 148.445312 243.148438 C 148.445312 223.8125 155.6875 205.367188 168.835938 191.207031 C 181.917969 177.121094 199.632812 168.535156 218.714844 167.035156 C 224.503906 166.578125 228.847656 161.554688 228.464844 155.761719 C 228.28125 152.980469 228.191406 150.164062 228.191406 147.398438 C 228.191406 130.511719 231.496094 114.132812 238.015625 98.71875 C 244.3125 83.828125 253.332031 70.453125 264.820312 58.960938 C 276.3125 47.472656 289.6875 38.453125 304.578125 32.152344 C 319.992188 25.636719 336.371094 22.328125 353.257812 22.328125 C 376.765625 22.328125 399.664062 28.882812 419.488281 41.285156 C 438.78125 53.355469 454.4375 70.433594 464.757812 90.679688 C 467.335938 95.734375 473.433594 97.863281 478.597656 95.515625 C 487.265625 91.574219 496.527344 89.578125 506.132812 89.578125 C 523.925781 89.578125 540.652344 96.503906 553.234375 109.085938 C 565.816406 121.667969 572.746094 138.394531 572.746094 156.1875 C 572.746094 162.046875 577.492188 166.792969 583.347656 166.792969 C 603.746094 166.792969 622.921875 174.734375 637.339844 189.15625 C 651.765625 203.578125 659.703125 222.753906 659.703125 243.148438 C 659.707031 263.546875 651.765625 282.722656 637.339844 297.144531 Z M 637.339844 297.144531 " fill-opacity="1" fill-rule="nonzero"/></g><g clip-path="url(#38a457cd51)"><path fill="#3eb1fb" d="M 672.648438 205.167969 C 667.730469 193.550781 660.699219 183.117188 651.742188 174.160156 C 642.785156 165.203125 632.351562 158.167969 620.730469 153.253906 C 611.777344 149.464844 602.414062 147.070312 592.785156 146.089844 C 591.839844 137.796875 589.71875 129.726562 586.449219 122 C 582.027344 111.539062 575.695312 102.148438 567.632812 94.085938 C 559.570312 86.023438 550.179688 79.695312 539.722656 75.269531 C 528.886719 70.6875 517.386719 68.363281 505.535156 68.363281 C 496.214844 68.363281 487.128906 69.796875 478.414062 72.632812 C 466.503906 52.636719 449.964844 35.703125 430.136719 23.300781 C 406.941406 8.789062 380.148438 1.117188 352.660156 1.117188 C 332.917969 1.117188 313.757812 4.988281 295.71875 12.617188 C 278.296875 19.984375 262.65625 30.53125 249.222656 43.960938 C 235.792969 57.394531 225.246094 73.035156 217.878906 90.457031 C 210.273438 108.441406 206.40625 127.535156 206.378906 147.210938 C 185.863281 150.996094 167.082031 161.28125 152.695312 176.773438 C 135.890625 194.871094 126.636719 218.441406 126.636719 243.148438 C 126.636719 256.273438 129.203125 269.015625 134.261719 281.015625 C 139.144531 292.605469 146.136719 303.015625 155.042969 311.964844 C 163.945312 320.914062 174.324219 327.957031 185.886719 332.898438 C 197.738281 337.960938 210.328125 340.59375 223.304688 340.707031 C 223.449219 340.714844 223.59375 340.71875 223.738281 340.71875 L 582.753906 340.71875 C 595.921875 340.71875 608.699219 338.136719 620.734375 333.046875 C 632.355469 328.132812 642.785156 321.097656 651.746094 312.140625 C 660.703125 303.183594 667.734375 292.75 672.648438 281.128906 C 677.738281 269.09375 680.320312 256.316406 680.320312 243.148438 C 680.320312 229.984375 677.738281 217.203125 672.648438 205.167969 Z M 636.742188 297.144531 C 622.320312 311.566406 603.144531 319.507812 582.75 319.507812 L 224.09375 319.507812 C 223.992188 319.503906 223.894531 319.5 223.792969 319.5 C 203.484375 319.394531 184.40625 311.402344 170.074219 297.003906 C 155.742188 282.597656 147.847656 263.472656 147.847656 243.148438 C 147.847656 223.8125 155.085938 205.367188 168.238281 191.207031 C 181.320312 177.121094 199.03125 168.535156 218.117188 167.035156 C 223.902344 166.578125 228.25 161.554688 227.867188 155.761719 C 227.683594 152.980469 227.589844 150.164062 227.589844 147.398438 C 227.589844 130.511719 230.894531 114.132812 237.414062 98.71875 C 243.714844 83.828125 252.734375 70.453125 264.222656 58.960938 C 275.714844 47.472656 289.089844 38.453125 303.980469 32.152344 C 319.394531 25.636719 335.773438 22.328125 352.660156 22.328125 C 376.164062 22.328125 399.066406 28.882812 418.886719 41.285156 C 438.183594 53.355469 453.839844 70.433594 464.160156 90.679688 C 466.734375 95.734375 472.832031 97.863281 477.996094 95.515625 C 486.664062 91.574219 495.929688 89.578125 505.535156 89.578125 C 523.328125 89.578125 540.054688 96.503906 552.636719 109.085938 C 565.21875 121.667969 572.144531 138.394531 572.144531 156.1875 C 572.144531 162.046875 576.894531 166.792969 582.75 166.792969 C 603.148438 166.792969 622.320312 174.734375 636.742188 189.15625 C 651.164062 203.578125 659.105469 222.753906 659.105469 243.148438 C 659.109375 263.546875 651.164062 282.722656 636.742188 297.144531 Z M 636.742188 297.144531 " fill-opacity="1" fill-rule="nonzero"/></g><g clip-path="url(#a89d992bbe)"><path fill="#3eb1fb" d="M 674.113281 205.167969 C 669.199219 193.550781 662.164062 183.117188 653.207031 174.160156 C 644.25 165.203125 633.816406 158.167969 622.199219 153.253906 C 613.246094 149.464844 603.882812 147.070312 594.25 146.089844 C 593.304688 137.796875 591.1875 129.726562 587.917969 122 C 583.492188 111.539062 577.164062 102.148438 569.101562 94.085938 C 561.039062 86.023438 551.648438 79.695312 541.1875 75.269531 C 530.355469 70.6875 518.851562 68.363281 507 68.363281 C 497.679688 68.363281 488.59375 69.796875 479.878906 72.632812 C 467.972656 52.636719 451.429688 35.703125 431.605469 23.300781 C 408.40625 8.789062 381.617188 1.117188 354.125 1.117188 C 334.382812 1.117188 315.226562 4.988281 297.183594 12.617188 C 279.765625 19.984375 264.121094 30.53125 250.691406 43.960938 C 237.261719 57.394531 226.714844 73.035156 219.347656 90.457031 C 211.738281 108.441406 207.871094 127.535156 207.847656 147.210938 C 187.332031 150.996094 168.546875 161.28125 154.160156 176.773438 C 137.359375 194.871094 128.101562 218.441406 128.101562 243.148438 C 128.101562 256.273438 130.667969 269.015625 135.726562 281.015625 C 140.609375 292.605469 147.605469 303.015625 156.511719 311.964844 C 165.414062 320.914062 175.789062 327.957031 187.351562 332.898438 C 199.207031 337.960938 211.792969 340.59375 224.769531 340.707031 C 224.914062 340.714844 225.058594 340.71875 225.207031 340.71875 L 584.21875 340.71875 C 597.386719 340.71875 610.164062 338.136719 622.199219 333.046875 C 633.820312 328.132812 644.253906 321.097656 653.210938 312.140625 C 662.167969 303.183594 669.199219 292.75 674.117188 281.128906 C 679.207031 269.09375 681.789062 256.316406 681.789062 243.148438 C 681.789062 229.984375 679.203125 217.203125 674.113281 205.167969 Z M 638.207031 297.144531 C 623.785156 311.566406 604.613281 319.507812 584.21875 319.507812 L 225.5625 319.507812 C 225.460938 319.503906 225.359375 319.5 225.257812 319.5 C 204.949219 319.394531 185.875 311.402344 171.542969 297.003906 C 157.207031 282.597656 149.3125 263.472656 149.3125 243.148438 C 149.3125 223.8125 156.554688 205.367188 169.703125 191.207031 C 182.785156 177.121094 200.5 168.535156 219.582031 167.035156 C 225.371094 166.578125 229.714844 161.554688 229.332031 155.761719 C 229.148438 152.980469 229.058594 150.164062 229.058594 147.398438 C 229.058594 130.511719 232.363281 114.132812 238.882812 98.71875 C 245.179688 83.828125 254.199219 70.453125 265.691406 58.960938 C 277.179688 47.472656 290.554688 38.453125 305.449219 32.152344 C 320.859375 25.636719 337.238281 22.328125 354.125 22.328125 C 377.632812 22.328125 400.535156 28.882812 420.355469 41.285156 C 439.648438 53.355469 455.304688 70.433594 465.625 90.679688 C 468.203125 95.734375 474.300781 97.863281 479.464844 95.515625 C 488.132812 91.574219 497.394531 89.578125 507 89.578125 C 524.792969 89.578125 541.519531 96.503906 554.101562 109.085938 C 566.683594 121.667969 573.613281 138.394531 573.613281 156.1875 C 573.613281 162.046875 578.359375 166.792969 584.21875 166.792969 C 604.613281 166.792969 623.789062 174.734375 638.207031 189.15625 C 652.632812 203.578125 660.574219 222.753906 660.574219 243.148438 C 660.574219 263.546875 652.632812 282.722656 638.207031 297.144531 Z M 638.207031 297.144531 " fill-opacity="1" fill-rule="nonzero"/></g><path stroke-linecap="butt" transform="matrix(0.0000000120162, 6.884802, -6.884802, 0.0000000120162, 460.670524, 187.415231)" fill="none" stroke-linejoin="miter" d="M -0.000169661 1.499938 L 25.276293 1.499938 " stroke="#3eb1fb" stroke-width="3" stroke-opacity="1" stroke-miterlimit="4"/><path stroke-linecap="butt" transform="matrix(0.0000000120162, 6.884802, -6.884802, 0.0000000120162, 388.380102, 186.300483)" fill="none" stroke-linejoin="miter" d="M 0.0000432561 1.49974 L 25.275938 1.49974 " stroke="#3eb1fb" stroke-width="3" stroke-opacity="1" stroke-miterlimit="4"/><path stroke-linecap="butt" transform="matrix(0.0000000120162, 6.884802, -6.884802, 0.0000000120162, 316.089686, 262.033298)" fill="none" stroke-linejoin="miter" d="M 0.000269902 1.500111 L 14.275939 1.500111 " stroke="#3eb1fb" stroke-width="3" stroke-opacity="1" stroke-miterlimit="4"/><path stroke-linecap="butt" transform="matrix(0, 6.884802, -6.884802, 0, 543.288144, 262.033298)" fill="none" stroke-linejoin="miter" d="M 0.000269904 1.500001 L 14.275939 1.500001 " stroke="#3eb1fb" stroke-width="3" stroke-opacity="1" stroke-miterlimit="4"/><g clip-path="url(#2783d86792)"><path fill="#3eb1fb" d="M 672.648438 205.167969 C 667.730469 193.550781 660.699219 183.117188 651.742188 174.160156 C 642.785156 165.203125 632.351562 158.167969 620.730469 153.253906 C 611.777344 149.464844 602.414062 147.070312 592.785156 146.089844 C 591.839844 137.796875 589.71875 129.726562 586.449219 122 C 582.027344 111.539062 575.695312 102.148438 567.632812 94.085938 C 559.570312 86.023438 550.179688 79.695312 539.722656 75.269531 C 528.886719 70.6875 517.386719 68.363281 505.535156 68.363281 C 496.214844 68.363281 487.128906 69.796875 478.414062 72.632812 C 466.503906 52.636719 449.964844 35.703125 430.136719 23.300781 C 406.941406 8.789062 380.148438 1.117188 352.660156 1.117188 C 332.917969 1.117188 313.757812 4.988281 295.71875 12.617188 C 278.296875 19.984375 262.65625 30.53125 249.222656 43.960938 C 235.792969 57.394531 225.246094 73.035156 217.878906 90.457031 C 210.273438 108.441406 206.40625 127.535156 206.378906 147.210938 C 185.863281 150.996094 167.082031 161.28125 152.695312 176.773438 C 135.890625 194.871094 126.636719 218.441406 126.636719 243.148438 C 126.636719 256.273438 129.203125 269.015625 134.261719 281.015625 C 139.144531 292.605469 146.136719 303.015625 155.042969 311.964844 C 163.945312 320.914062 174.324219 327.957031 185.886719 332.898438 C 197.738281 337.960938 210.328125 340.59375 223.304688 340.707031 C 223.449219 340.714844 223.59375 340.71875 223.738281 340.71875 L 582.753906 340.71875 C 595.921875 340.71875 608.699219 338.136719 620.734375 333.046875 C 632.355469 328.132812 642.785156 321.097656 651.746094 312.140625 C 660.703125 303.183594 667.734375 292.75 672.648438 281.128906 C 677.738281 269.09375 680.320312 256.316406 680.320312 243.148438 C 680.320312 229.984375 677.738281 217.203125 672.648438 205.167969 Z M 636.742188 297.144531 C 622.320312 311.566406 603.144531 319.507812 582.75 319.507812 L 224.09375 319.507812 C 223.992188 319.503906 223.894531 319.5 223.792969 319.5 C 203.484375 319.394531 184.40625 311.402344 170.074219 297.003906 C 155.742188 282.597656 147.847656 263.472656 147.847656 243.148438 C 147.847656 223.8125 155.085938 205.367188 168.238281 191.207031 C 181.320312 177.121094 199.03125 168.535156 218.117188 167.035156 C 223.902344 166.578125 228.25 161.554688 227.867188 155.761719 C 227.683594 152.980469 227.589844 150.164062 227.589844 147.398438 C 227.589844 130.511719 230.894531 114.132812 237.414062 98.71875 C 243.714844 83.828125 252.734375 70.453125 264.222656 58.960938 C 275.714844 47.472656 289.089844 38.453125 303.980469 32.152344 C 319.394531 25.636719 335.773438 22.328125 352.660156 22.328125 C 376.164062 22.328125 399.066406 28.882812 418.886719 41.285156 C 438.183594 53.355469 453.839844 70.433594 464.160156 90.679688 C 466.734375 95.734375 472.832031 97.863281 477.996094 95.515625 C 486.664062 91.574219 495.929688 89.578125 505.535156 89.578125 C 523.328125 89.578125 540.054688 96.503906 552.636719 109.085938 C 565.21875 121.667969 572.144531 138.394531 572.144531 156.1875 C 572.144531 162.046875 576.894531 166.792969 582.75 166.792969 C 603.148438 166.792969 622.320312 174.734375 636.742188 189.15625 C 651.164062 203.578125 659.105469 222.753906 659.105469 243.148438 C 659.109375 263.546875 651.164062 282.722656 636.742188 297.144531 Z M 636.742188 297.144531 " fill-opacity="1" fill-rule="nonzero"/></g><g clip-path="url(#7dd95ce08c)"><path fill="#3eb1fb" d="M 580.480469 205.167969 C 575.566406 193.550781 568.53125 183.117188 559.574219 174.160156 C 550.617188 165.203125 540.183594 158.167969 528.566406 153.253906 C 519.613281 149.464844 510.246094 147.070312 500.617188 146.089844 C 499.671875 137.796875 497.554688 129.726562 494.285156 122 C 489.859375 111.539062 483.527344 102.148438 475.46875 94.085938 C 467.40625 86.023438 458.015625 79.695312 447.554688 75.269531 C 436.71875 70.6875 425.21875 68.363281 413.367188 68.363281 C 404.046875 68.363281 394.960938 69.796875 386.246094 72.632812 C 374.339844 52.636719 357.796875 35.703125 337.972656 23.300781 C 314.773438 8.789062 287.984375 1.117188 260.492188 1.117188 C 240.75 1.117188 221.589844 4.988281 203.550781 12.617188 C 186.132812 19.984375 170.488281 30.53125 157.058594 43.960938 C 143.625 57.394531 133.082031 73.035156 125.714844 90.457031 C 118.105469 108.441406 114.238281 127.535156 114.214844 147.210938 C 93.699219 150.996094 74.914062 161.28125 60.527344 176.773438 C 43.726562 194.871094 34.46875 218.441406 34.46875 243.148438 C 34.46875 256.273438 37.035156 269.015625 42.09375 281.015625 C 46.976562 292.605469 53.96875 303.015625 62.875 311.964844 C 71.78125 320.914062 82.15625 327.957031 93.71875 332.898438 C 105.570312 337.960938 118.160156 340.59375 131.136719 340.707031 C 131.28125 340.714844 131.425781 340.71875 131.574219 340.71875 L 490.585938 340.71875 C 503.753906 340.71875 516.53125 338.136719 528.566406 333.046875 C 540.1875 328.132812 550.621094 321.097656 559.578125 312.140625 C 568.535156 303.183594 575.566406 292.75 580.484375 281.128906 C 585.574219 269.09375 588.152344 256.316406 588.152344 243.148438 C 588.152344 229.984375 585.570312 217.203125 580.480469 205.167969 Z M 544.574219 297.144531 C 530.152344 311.566406 510.980469 319.507812 490.582031 319.507812 L 131.929688 319.507812 C 131.828125 319.503906 131.726562 319.5 131.625 319.5 C 111.316406 319.394531 92.238281 311.402344 77.910156 297.003906 C 63.574219 282.597656 55.679688 263.472656 55.679688 243.148438 C 55.679688 223.8125 62.921875 205.367188 76.070312 191.207031 C 89.152344 177.121094 106.867188 168.535156 125.949219 167.035156 C 131.738281 166.578125 136.082031 161.554688 135.699219 155.761719 C 135.515625 152.980469 135.425781 150.164062 135.425781 147.398438 C 135.425781 130.511719 138.730469 114.132812 145.25 98.71875 C 151.546875 83.828125 160.566406 70.453125 172.054688 58.960938 C 183.546875 47.472656 196.921875 38.453125 211.8125 32.152344 C 227.226562 25.636719 243.605469 22.328125 260.492188 22.328125 C 284 22.328125 306.898438 28.882812 326.722656 41.285156 C 346.015625 53.355469 361.671875 70.433594 371.992188 90.679688 C 374.570312 95.734375 380.667969 97.863281 385.832031 95.515625 C 394.5 91.574219 403.761719 89.578125 413.367188 89.578125 C 431.160156 89.578125 447.886719 96.503906 460.46875 109.085938 C 473.050781 121.667969 479.980469 138.394531 479.980469 156.1875 C 479.980469 162.046875 484.726562 166.792969 490.582031 166.792969 C 510.980469 166.792969 530.15625 174.734375 544.574219 189.15625 C 559 203.578125 566.9375 222.753906 566.9375 243.148438 C 566.941406 263.546875 559 282.722656 544.574219 297.144531 Z M 544.574219 297.144531 " fill-opacity="1" fill-rule="nonzero"/></g><g clip-path="url(#35c9744035)"><path fill="#3eb1fb" d="M 504.746094 205.167969 C 499.832031 193.550781 492.800781 183.117188 483.84375 174.160156 C 474.882812 165.203125 464.453125 158.167969 452.832031 153.253906 C 443.878906 149.464844 434.515625 147.070312 424.886719 146.089844 C 423.9375 137.796875 421.820312 129.726562 418.550781 122 C 414.125 111.539062 407.796875 102.148438 399.734375 94.085938 C 391.671875 86.023438 382.28125 79.695312 371.820312 75.269531 C 360.988281 70.6875 349.484375 68.363281 337.636719 68.363281 C 328.3125 68.363281 319.226562 69.796875 310.511719 72.632812 C 298.605469 52.636719 282.066406 35.703125 262.238281 23.300781 C 239.039062 8.789062 212.25 1.117188 184.761719 1.117188 C 165.019531 1.117188 145.859375 4.988281 127.820312 12.617188 C 110.398438 19.984375 94.757812 30.53125 81.324219 43.960938 C 67.894531 57.394531 57.347656 73.035156 49.980469 90.457031 C 42.375 108.441406 38.503906 127.535156 38.480469 147.210938 C 17.964844 150.996094 -0.816406 161.28125 -15.203125 176.773438 C -32.007812 194.871094 -41.261719 218.441406 -41.261719 243.148438 C -41.261719 256.273438 -38.699219 269.015625 -33.640625 281.015625 C -28.753906 292.605469 -21.761719 303.015625 -12.855469 311.964844 C -3.953125 320.914062 6.425781 327.957031 17.984375 332.898438 C 29.839844 337.960938 42.425781 340.59375 55.402344 340.707031 C 55.550781 340.714844 55.695312 340.71875 55.839844 340.71875 L 414.855469 340.71875 C 428.023438 340.71875 440.800781 338.136719 452.835938 333.046875 C 464.453125 328.132812 474.886719 321.097656 483.84375 312.140625 C 492.800781 303.183594 499.835938 292.75 504.75 281.128906 C 509.839844 269.09375 512.421875 256.316406 512.421875 243.148438 C 512.421875 229.984375 509.835938 217.203125 504.746094 205.167969 Z M 468.84375 297.144531 C 454.421875 311.566406 435.246094 319.507812 414.851562 319.507812 L 56.195312 319.507812 C 56.09375 319.503906 55.992188 319.5 55.890625 319.5 C 35.582031 319.394531 16.507812 311.402344 2.175781 297.003906 C -12.160156 282.597656 -20.054688 263.472656 -20.054688 243.148438 C -20.054688 223.8125 -12.8125 205.367188 0.335938 191.207031 C 13.417969 177.121094 31.132812 168.535156 50.21875 167.035156 C 56.003906 166.578125 60.347656 161.554688 59.96875 155.761719 C 59.785156 152.980469 59.691406 150.164062 59.691406 147.398438 C 59.691406 130.511719 62.996094 114.132812 69.515625 98.71875 C 75.8125 83.828125 84.832031 70.453125 96.324219 58.960938 C 107.8125 47.472656 121.1875 38.453125 136.082031 32.152344 C 151.496094 25.636719 167.871094 22.328125 184.761719 22.328125 C 208.265625 22.328125 231.167969 28.882812 250.988281 41.285156 C 270.285156 53.355469 285.9375 70.433594 296.257812 90.679688 C 298.835938 95.734375 304.933594 97.863281 310.097656 95.515625 C 318.765625 91.574219 328.03125 89.578125 337.636719 89.578125 C 355.429688 89.578125 372.15625 96.503906 384.734375 109.085938 C 397.316406 121.667969 404.246094 138.394531 404.246094 156.1875 C 404.246094 162.046875 408.992188 166.792969 414.851562 166.792969 C 435.246094 166.792969 454.421875 174.734375 468.84375 189.15625 C 483.265625 203.578125 491.207031 222.753906 491.207031 243.148438 C 491.207031 263.546875 483.265625 282.722656 468.84375 297.144531 Z M 468.84375 297.144531 " fill-opacity="1" fill-rule="nonzero"/></g><path stroke-linecap="butt" transform="matrix(0, 6.884802, -6.884802, 0, 386.748704, 577.550878)" fill="none" stroke-linejoin="miter" d="M -0.0000140729 1.499946 L 14.89239 1.499946 " stroke="#3eb1fb" stroke-width="3" stroke-opacity="1" stroke-miterlimit="4"/><path stroke-linecap="butt" transform="matrix(0, 6.884802, -6.884802, 0, 469.321684, 577.595518)" fill="none" stroke-linejoin="miter" d="M -0.000256817 1.499766 L 22.296363 1.499766 " stroke="#3eb1fb" stroke-width="3" stroke-opacity="1" stroke-miterlimit="4"/><path stroke-linecap="butt" transform="matrix(3.805392, 5.737551, -5.737551, 3.805392, 535.090873, 567.963647)" fill="none" stroke-linejoin="miter" d="M 0.854942 1.232377 C 6.921301 5.441713 11.994946 5.441472 16.076822 1.232279 " stroke="#3eb1fb" stroke-width="3" stroke-opacity="1" stroke-miterlimit="4"/><path stroke-linecap="butt" transform="matrix(-3.938165, 5.647243, -5.647243, -3.938165, 336.011559, 590.992461)" fill="none" stroke-linejoin="miter" d="M 0.880417 5.047643 C 7.402617 0.317398 11.423601 0.317511 12.94351 5.047193 " stroke="#3eb1fb" stroke-width="3" stroke-opacity="1" stroke-miterlimit="4"/><g clip-path="url(#d3a5f34fb7)"><g clip-path="url(#bd8406adc9)"><path stroke-linecap="butt" transform="matrix(6.884802, 0, 0, 6.884802, 579.529726, 634.104211)" fill="none" stroke-linejoin="miter" d="M 4.46885 0.000182642 C 2.000778 0.000182642 0.000221307 2.000739 0.000221307 4.468812 C 0.000221307 6.936884 2.000778 8.937441 4.46885 8.937441 C 6.936922 8.937441 8.937479 6.936884 8.937479 4.468812 C 8.937479 2.000739 6.936922 0.000182642 4.46885 0.000182642 Z M 4.46885 0.000182642 " stroke="#3eb1fb" stroke-width="0.653614" stroke-opacity="1" stroke-miterlimit="4"/></g></g><g transform="matrix(1, 0, 0, 1, 530, 361)"><g clip-path="url(#fee9d4a049)"><g fill="#000000" fill-opacity="1"><g transform="translate(1.107262, 119.44641)"><g><path d="M 1.0625 -87.90625 L 1.0625 -109.890625 L 78.328125 -109.890625 L 78.328125 -87.90625 L 52.21875 -87.90625 L 52.21875 0 L 27.171875 0 L 27.171875 -87.90625 Z M 1.0625 -87.90625 "/></g></g></g><g fill="#000000" fill-opacity="1"><g transform="translate(82.758418, 119.44641)"><g><path d="M 70.859375 -109.890625 L 70.859375 -87.90625 L 33.03125 -87.90625 L 33.03125 -66.0625 L 69.265625 -66.0625 L 69.265625 -44.09375 L 33.03125 -44.09375 L 33.03125 -21.984375 L 70.859375 -21.984375 L 70.859375 0 L 7.984375 0 L 7.984375 -109.890625 Z M 70.859375 -109.890625 "/></g></g></g><g fill="#000000" fill-opacity="1"><g transform="translate(162.278361, 119.44641)"><g><path d="M 66.46875 -22.640625 C 70.289062 -22.640625 74 -23.21875 77.59375 -24.375 C 81.1875 -25.53125 83.828125 -26.640625 85.515625 -27.703125 L 88.046875 -29.4375 L 98.703125 -8.125 C 98.347656 -7.851562 97.859375 -7.492188 97.234375 -7.046875 C 96.617188 -6.609375 95.175781 -5.789062 92.90625 -4.59375 C 90.644531 -3.394531 88.222656 -2.351562 85.640625 -1.46875 C 83.066406 -0.582031 79.691406 0.210938 75.515625 0.921875 C 71.347656 1.640625 67.046875 2 62.609375 2 C 52.390625 2 42.707031 -0.503906 33.5625 -5.515625 C 24.414062 -10.535156 17.046875 -17.441406 11.453125 -26.234375 C 5.859375 -35.023438 3.0625 -44.53125 3.0625 -54.75 C 3.0625 -62.46875 4.703125 -69.878906 7.984375 -76.984375 C 11.273438 -84.085938 15.648438 -90.171875 21.109375 -95.234375 C 26.566406 -100.296875 32.9375 -104.335938 40.21875 -107.359375 C 47.507812 -110.378906 54.972656 -111.890625 62.609375 -111.890625 C 69.710938 -111.890625 76.257812 -111.046875 82.25 -109.359375 C 88.25 -107.671875 92.488281 -105.984375 94.96875 -104.296875 L 98.703125 -101.765625 L 88.046875 -80.453125 C 87.421875 -80.984375 86.488281 -81.625 85.25 -82.375 C 84.007812 -83.132812 81.523438 -84.132812 77.796875 -85.375 C 74.066406 -86.625 70.289062 -87.25 66.46875 -87.25 C 60.425781 -87.25 55.007812 -86.269531 50.21875 -84.3125 C 45.425781 -82.363281 41.628906 -79.789062 38.828125 -76.59375 C 36.023438 -73.394531 33.890625 -69.953125 32.421875 -66.265625 C 30.960938 -62.578125 30.234375 -58.828125 30.234375 -55.015625 C 30.234375 -46.660156 33.363281 -39.175781 39.625 -32.5625 C 45.882812 -25.945312 54.832031 -22.640625 66.46875 -22.640625 Z M 66.46875 -22.640625 "/></g></g></g></g></g><g transform="matrix(1, 0, 0, 1, 82, 484)"><g clip-path="url(#78be428bc7)"><g fill="#000000" fill-opacity="1"><g transform="translate(0.717514, 61.6147)"><g><path d="M 18.875 -43.578125 C 21.195312 -43.578125 23.460938 -43.238281 25.671875 -42.5625 C 27.890625 -41.882812 29.535156 -41.21875 30.609375 -40.5625 L 32.15625 -39.53125 L 28.21875 -31.75 C 27.90625 -31.957031 27.472656 -32.222656 26.921875 -32.546875 C 26.367188 -32.878906 25.332031 -33.320312 23.8125 -33.875 C 22.289062 -34.425781 20.875 -34.703125 19.5625 -34.703125 C 17.9375 -34.703125 16.679688 -34.351562 15.796875 -33.65625 C 14.910156 -32.96875 14.46875 -32.035156 14.46875 -30.859375 C 14.46875 -30.273438 14.675781 -29.734375 15.09375 -29.234375 C 15.507812 -28.734375 16.21875 -28.195312 17.21875 -27.625 C 18.226562 -27.050781 19.113281 -26.59375 19.875 -26.25 C 20.632812 -25.90625 21.804688 -25.382812 23.390625 -24.6875 C 26.160156 -23.507812 28.519531 -21.910156 30.46875 -19.890625 C 32.425781 -17.867188 33.40625 -15.578125 33.40625 -13.015625 C 33.40625 -10.566406 32.960938 -8.425781 32.078125 -6.59375 C 31.203125 -4.757812 29.992188 -3.320312 28.453125 -2.28125 C 26.910156 -1.238281 25.207031 -0.46875 23.34375 0.03125 C 21.476562 0.53125 19.457031 0.78125 17.28125 0.78125 C 15.40625 0.78125 13.566406 0.585938 11.765625 0.203125 C 9.972656 -0.171875 8.472656 -0.644531 7.265625 -1.21875 C 6.054688 -1.789062 4.96875 -2.351562 4 -2.90625 C 3.03125 -3.457031 2.320312 -3.925781 1.875 -4.3125 L 1.1875 -4.875 L 6.0625 -13.078125 C 6.476562 -12.722656 7.050781 -12.28125 7.78125 -11.75 C 8.507812 -11.21875 9.796875 -10.5 11.640625 -9.59375 C 13.492188 -8.695312 15.128906 -8.25 16.546875 -8.25 C 20.660156 -8.25 22.71875 -9.648438 22.71875 -12.453125 C 22.71875 -13.035156 22.570312 -13.578125 22.28125 -14.078125 C 21.988281 -14.585938 21.46875 -15.09375 20.71875 -15.59375 C 19.976562 -16.09375 19.320312 -16.488281 18.75 -16.78125 C 18.175781 -17.070312 17.238281 -17.519531 15.9375 -18.125 C 14.644531 -18.726562 13.691406 -19.1875 13.078125 -19.5 C 10.484375 -20.78125 8.472656 -22.378906 7.046875 -24.296875 C 5.628906 -26.222656 4.921875 -28.289062 4.921875 -30.5 C 4.921875 -34.34375 6.335938 -37.484375 9.171875 -39.921875 C 12.015625 -42.359375 15.25 -43.578125 18.875 -43.578125 Z M 18.875 -43.578125 "/></g></g></g><g fill="#000000" fill-opacity="1"><g transform="translate(51.134013, 61.6147)"><g><path d="M 1.1875 -21.421875 C 1.1875 -27.609375 3.296875 -32.847656 7.515625 -37.140625 C 11.734375 -41.429688 16.816406 -43.578125 22.765625 -43.578125 C 28.753906 -43.578125 33.835938 -41.441406 38.015625 -37.171875 C 42.203125 -32.898438 44.296875 -27.648438 44.296875 -21.421875 C 44.296875 -15.160156 42.238281 -9.894531 38.125 -5.625 C 34.007812 -1.351562 28.890625 0.78125 22.765625 0.78125 C 16.515625 0.78125 11.351562 -1.335938 7.28125 -5.578125 C 3.21875 -9.816406 1.1875 -15.097656 1.1875 -21.421875 Z M 11.71875 -21.421875 C 11.71875 -19.171875 12.0625 -17.117188 12.75 -15.265625 C 13.445312 -13.421875 14.660156 -11.859375 16.390625 -10.578125 C 18.117188 -9.296875 20.242188 -8.65625 22.765625 -8.65625 C 26.398438 -8.65625 29.140625 -9.898438 30.984375 -12.390625 C 32.835938 -14.890625 33.765625 -17.898438 33.765625 -21.421875 C 33.765625 -24.910156 32.820312 -27.910156 30.9375 -30.421875 C 29.050781 -32.929688 26.328125 -34.1875 22.765625 -34.1875 C 19.242188 -34.1875 16.519531 -32.929688 14.59375 -30.421875 C 12.675781 -27.910156 11.71875 -24.910156 11.71875 -21.421875 Z M 11.71875 -21.421875 "/></g></g></g><g fill="#000000" fill-opacity="1"><g transform="translate(112.183673, 61.6147)"><g><path d="M 12.859375 -42.796875 L 12.859375 -8.5625 L 27.59375 -8.5625 L 27.59375 0 L 3.109375 0 L 3.109375 -42.796875 Z M 12.859375 -42.796875 "/></g></g></g><g fill="#000000" fill-opacity="1"><g transform="translate(157.050179, 61.6147)"><g><path d="M 36 -42.796875 L 36 -15.203125 C 36 -9.941406 34.582031 -5.960938 31.75 -3.265625 C 28.914062 -0.566406 24.765625 0.78125 19.296875 0.78125 C 13.828125 0.78125 9.675781 -0.566406 6.84375 -3.265625 C 4.007812 -5.960938 2.59375 -9.941406 2.59375 -15.203125 L 2.59375 -42.796875 L 12.34375 -42.796875 L 12.34375 -18.046875 C 12.34375 -14.585938 12.882812 -12.179688 13.96875 -10.828125 C 15.0625 -9.484375 16.835938 -8.8125 19.296875 -8.8125 C 21.753906 -8.8125 23.523438 -9.484375 24.609375 -10.828125 C 25.703125 -12.179688 26.25 -14.585938 26.25 -18.046875 L 26.25 -42.796875 Z M 36 -42.796875 "/></g></g></g><g fill="#000000" fill-opacity="1"><g transform="translate(209.54147, 61.6147)"><g><path d="M 25.890625 -8.8125 C 27.367188 -8.8125 28.804688 -9.035156 30.203125 -9.484375 C 31.609375 -9.941406 32.640625 -10.378906 33.296875 -10.796875 L 34.296875 -11.46875 L 38.4375 -3.171875 C 38.300781 -3.066406 38.109375 -2.925781 37.859375 -2.75 C 37.617188 -2.570312 37.054688 -2.25 36.171875 -1.78125 C 35.296875 -1.320312 34.351562 -0.914062 33.34375 -0.5625 C 32.34375 -0.21875 31.03125 0.0859375 29.40625 0.359375 C 27.78125 0.640625 26.101562 0.78125 24.375 0.78125 C 23.238281 0.78125 22.203125 0.710938 21.265625 0.578125 L 20.390625 3.265625 C 22.015625 3.265625 23.535156 3.726562 24.953125 4.65625 C 26.367188 5.59375 27.078125 6.894531 27.078125 8.5625 C 27.078125 10.394531 26.425781 11.96875 25.125 13.28125 C 23.832031 14.59375 21.851562 15.25 19.1875 15.25 C 17.8125 15.25 16.457031 14.882812 15.125 14.15625 C 13.789062 13.4375 12.796875 12.726562 12.140625 12.03125 L 11.203125 10.953125 L 14.9375 8.140625 C 15.070312 8.316406 15.269531 8.539062 15.53125 8.8125 C 15.789062 9.09375 16.289062 9.457031 17.03125 9.90625 C 17.78125 10.351562 18.5 10.578125 19.1875 10.578125 C 20.09375 10.578125 20.75 10.378906 21.15625 9.984375 C 21.570312 9.585938 21.78125 9.113281 21.78125 8.5625 C 21.78125 7.800781 21.453125 7.21875 20.796875 6.8125 C 20.140625 6.414062 19.398438 6.21875 18.578125 6.21875 C 18.015625 6.21875 17.507812 6.253906 17.0625 6.328125 C 16.613281 6.398438 16.320312 6.46875 16.1875 6.53125 L 15.921875 6.6875 L 15.40625 6.28125 L 17.53125 -0.265625 C 12.832031 -1.710938 8.929688 -4.375 5.828125 -8.25 C 2.734375 -12.125 1.1875 -16.484375 1.1875 -21.328125 C 1.1875 -24.328125 1.828125 -27.210938 3.109375 -29.984375 C 4.390625 -32.753906 6.09375 -35.125 8.21875 -37.09375 C 10.34375 -39.0625 12.820312 -40.632812 15.65625 -41.8125 C 18.5 -42.988281 21.40625 -43.578125 24.375 -43.578125 C 27.144531 -43.578125 29.695312 -43.25 32.03125 -42.59375 C 34.363281 -41.9375 36.015625 -41.28125 36.984375 -40.625 L 38.4375 -39.625 L 34.296875 -31.328125 C 34.046875 -31.535156 33.675781 -31.785156 33.1875 -32.078125 C 32.707031 -32.378906 31.738281 -32.769531 30.28125 -33.25 C 28.832031 -33.738281 27.367188 -33.984375 25.890625 -33.984375 C 23.535156 -33.984375 21.421875 -33.601562 19.546875 -32.84375 C 17.679688 -32.082031 16.203125 -31.078125 15.109375 -29.828125 C 14.023438 -28.578125 13.195312 -27.234375 12.625 -25.796875 C 12.0625 -24.367188 11.78125 -22.910156 11.78125 -21.421875 C 11.78125 -18.171875 13 -15.253906 15.4375 -12.671875 C 17.875 -10.097656 21.359375 -8.8125 25.890625 -8.8125 Z M 25.890625 -8.8125 "/></g></g></g><g fill="#000000" fill-opacity="1"><g transform="translate(264.159327, 61.6147)"><g><path d="M 22.25 -49.484375 C 20.863281 -50.140625 19.550781 -50.46875 18.3125 -50.46875 C 17.820312 -50.46875 17.378906 -50.269531 16.984375 -49.875 C 16.585938 -49.476562 16.320312 -49.070312 16.1875 -48.65625 L 15.984375 -48.09375 L 10.734375 -48.09375 C 10.773438 -48.332031 10.835938 -48.648438 10.921875 -49.046875 C 11.003906 -49.441406 11.226562 -50.148438 11.59375 -51.171875 C 11.957031 -52.191406 12.375 -53.097656 12.84375 -53.890625 C 13.3125 -54.691406 13.984375 -55.410156 14.859375 -56.046875 C 15.742188 -56.691406 16.722656 -57.015625 17.796875 -57.015625 C 18.378906 -57.015625 19.117188 -56.898438 20.015625 -56.671875 C 20.921875 -56.453125 21.6875 -56.21875 22.3125 -55.96875 L 23.1875 -55.609375 C 24.570312 -54.953125 25.882812 -54.625 27.125 -54.625 C 27.613281 -54.625 28.054688 -54.820312 28.453125 -55.21875 C 28.847656 -55.613281 29.113281 -56.019531 29.25 -56.4375 L 29.46875 -57.015625 L 34.703125 -57.015625 C 34.671875 -56.765625 34.609375 -56.441406 34.515625 -56.046875 C 34.429688 -55.648438 34.207031 -54.941406 33.84375 -53.921875 C 33.476562 -52.898438 33.0625 -51.988281 32.59375 -51.1875 C 32.132812 -50.394531 31.460938 -49.679688 30.578125 -49.046875 C 29.691406 -48.410156 28.71875 -48.09375 27.65625 -48.09375 C 27.0625 -48.09375 26.3125 -48.203125 25.40625 -48.421875 C 24.507812 -48.648438 23.753906 -48.882812 23.140625 -49.125 Z M 1.1875 -21.421875 C 1.1875 -27.609375 3.296875 -32.847656 7.515625 -37.140625 C 11.734375 -41.429688 16.816406 -43.578125 22.765625 -43.578125 C 28.753906 -43.578125 33.835938 -41.441406 38.015625 -37.171875 C 42.203125 -32.898438 44.296875 -27.648438 44.296875 -21.421875 C 44.296875 -15.160156 42.238281 -9.894531 38.125 -5.625 C 34.007812 -1.351562 28.890625 0.78125 22.765625 0.78125 C 16.515625 0.78125 11.351562 -1.335938 7.28125 -5.578125 C 3.21875 -9.816406 1.1875 -15.097656 1.1875 -21.421875 Z M 11.71875 -21.421875 C 11.71875 -19.171875 12.0625 -17.117188 12.75 -15.265625 C 13.445312 -13.421875 14.660156 -11.859375 16.390625 -10.578125 C 18.117188 -9.296875 20.242188 -8.65625 22.765625 -8.65625 C 26.398438 -8.65625 29.140625 -9.898438 30.984375 -12.390625 C 32.835938 -14.890625 33.765625 -17.898438 33.765625 -21.421875 C 33.765625 -24.910156 32.820312 -27.910156 30.9375 -30.421875 C 29.050781 -32.929688 26.328125 -34.1875 22.765625 -34.1875 C 19.242188 -34.1875 16.519531 -32.929688 14.59375 -30.421875 C 12.675781 -27.910156 11.71875 -24.910156 11.71875 -21.421875 Z M 11.71875 -21.421875 "/></g></g></g><g fill="#000000" fill-opacity="1"><g transform="translate(325.208987, 61.6147)"><g><path d="M 27.59375 -42.796875 L 27.59375 -34.234375 L 12.859375 -34.234375 L 12.859375 -25.734375 L 26.96875 -25.734375 L 26.96875 -17.171875 L 12.859375 -17.171875 L 12.859375 -8.5625 L 27.59375 -8.5625 L 27.59375 0 L 3.109375 0 L 3.109375 -42.796875 Z M 27.59375 -42.796875 "/></g></g></g><g fill="#000000" fill-opacity="1"><g transform="translate(370.853556, 61.6147)"><g><path d="M 18.875 -43.578125 C 21.195312 -43.578125 23.460938 -43.238281 25.671875 -42.5625 C 27.890625 -41.882812 29.535156 -41.21875 30.609375 -40.5625 L 32.15625 -39.53125 L 28.21875 -31.75 C 27.90625 -31.957031 27.472656 -32.222656 26.921875 -32.546875 C 26.367188 -32.878906 25.332031 -33.320312 23.8125 -33.875 C 22.289062 -34.425781 20.875 -34.703125 19.5625 -34.703125 C 17.9375 -34.703125 16.679688 -34.351562 15.796875 -33.65625 C 14.910156 -32.96875 14.46875 -32.035156 14.46875 -30.859375 C 14.46875 -30.273438 14.675781 -29.734375 15.09375 -29.234375 C 15.507812 -28.734375 16.21875 -28.195312 17.21875 -27.625 C 18.226562 -27.050781 19.113281 -26.59375 19.875 -26.25 C 20.632812 -25.90625 21.804688 -25.382812 23.390625 -24.6875 C 26.160156 -23.507812 28.519531 -21.910156 30.46875 -19.890625 C 32.425781 -17.867188 33.40625 -15.578125 33.40625 -13.015625 C 33.40625 -10.566406 32.960938 -8.425781 32.078125 -6.59375 C 31.203125 -4.757812 29.992188 -3.320312 28.453125 -2.28125 C 26.910156 -1.238281 25.207031 -0.46875 23.34375 0.03125 C 21.476562 0.53125 19.457031 0.78125 17.28125 0.78125 C 15.40625 0.78125 13.566406 0.585938 11.765625 0.203125 C 9.972656 -0.171875 8.472656 -0.644531 7.265625 -1.21875 C 6.054688 -1.789062 4.96875 -2.351562 4 -2.90625 C 3.03125 -3.457031 2.320312 -3.925781 1.875 -4.3125 L 1.1875 -4.875 L 6.0625 -13.078125 C 6.476562 -12.722656 7.050781 -12.28125 7.78125 -11.75 C 8.507812 -11.21875 9.796875 -10.5 11.640625 -9.59375 C 13.492188 -8.695312 15.128906 -8.25 16.546875 -8.25 C 20.660156 -8.25 22.71875 -9.648438 22.71875 -12.453125 C 22.71875 -13.035156 22.570312 -13.578125 22.28125 -14.078125 C 21.988281 -14.585938 21.46875 -15.09375 20.71875 -15.59375 C 19.976562 -16.09375 19.320312 -16.488281 18.75 -16.78125 C 18.175781 -17.070312 17.238281 -17.519531 15.9375 -18.125 C 14.644531 -18.726562 13.691406 -19.1875 13.078125 -19.5 C 10.484375 -20.78125 8.472656 -22.378906 7.046875 -24.296875 C 5.628906 -26.222656 4.921875 -28.289062 4.921875 -30.5 C 4.921875 -34.34375 6.335938 -37.484375 9.171875 -39.921875 C 12.015625 -42.359375 15.25 -43.578125 18.875 -43.578125 Z M 18.875 -43.578125 "/></g></g></g><g fill="#000000" fill-opacity="1"><g transform="translate(421.270055, 61.6147)"><g/></g></g><g fill="#000000" fill-opacity="1"><g transform="translate(450.990803, 61.6147)"><g><path d="M 27.59375 -42.796875 L 27.59375 -34.234375 L 12.859375 -34.234375 L 12.859375 -25.734375 L 26.96875 -25.734375 L 26.96875 -17.171875 L 12.859375 -17.171875 L 12.859375 -8.5625 L 27.59375 -8.5625 L 27.59375 0 L 3.109375 0 L 3.109375 -42.796875 Z M 27.59375 -42.796875 "/></g></g></g><g fill="#000000" fill-opacity="1"><g transform="translate(496.635372, 61.6147)"><g><path d="M 38.484375 0 L 36.46875 -25.359375 L 36.203125 -25.359375 L 27.4375 -0.265625 L 21.625 -0.265625 L 12.859375 -25.359375 L 12.609375 -25.359375 L 10.578125 0 L 0.828125 0 L 4.671875 -42.796875 L 15.046875 -42.796875 L 24.53125 -18.109375 L 34.03125 -42.796875 L 44.40625 -42.796875 L 48.25 0 Z M 38.484375 0 "/></g></g></g><g fill="#000000" fill-opacity="1"><g transform="translate(561.263979, 61.6147)"><g/></g></g><g fill="#000000" fill-opacity="1"><g transform="translate(588.495016, 61.6147)"><g><path d="M 0.421875 -34.234375 L 0.421875 -42.796875 L 30.5 -42.796875 L 30.5 -34.234375 L 20.328125 -34.234375 L 20.328125 0 L 10.578125 0 L 10.578125 -34.234375 Z M 0.421875 -34.234375 "/></g></g></g><g fill="#000000" fill-opacity="1"><g transform="translate(634.969489, 61.6147)"><g><path d="M 12.859375 -42.796875 L 12.859375 0 L 3.109375 0 L 3.109375 -42.796875 Z M 12.859375 -42.796875 "/></g></g></g></g></g><g clip-path="url(#2ea5e10369)"><g clip-path="url(#dd8345c43d)"><path stroke-linecap="butt" transform="matrix(6.884802, 0, 0, 6.884802, 428.269902, 715.344735)" fill="none" stroke-linejoin="miter" d="M 4.468575 -0.000143099 C 2.000503 -0.000143099 -0.0000538439 2.000981 -0.0000538439 4.468486 C -0.0000538439 6.936558 2.000503 8.937682 4.468575 8.937682 C 6.936647 8.937682 8.937771 6.936558 8.937771 4.468486 C 8.937771 2.000981 6.936647 -0.000143099 4.468575 -0.000143099 Z M 4.468575 -0.000143099 " stroke="#3eb1fb" stroke-width="0.653614" stroke-opacity="1" stroke-miterlimit="4"/></g></g><g clip-path="url(#4ab62447d5)"><g clip-path="url(#fe062ec9e5)"><path stroke-linecap="butt" transform="matrix(6.884802, 0, 0, 6.884802, 343.014625, 664.879866)" fill="none" stroke-linejoin="miter" d="M 4.468774 -0.000139364 C 2.000702 -0.000139364 0.000145299 2.000985 0.000145299 4.46849 C 0.000145299 6.936562 2.000702 8.937686 4.468774 8.937686 C 6.936846 8.937686 8.937403 6.936562 8.937403 4.46849 C 8.937403 2.000985 6.936846 -0.000139364 4.468774 -0.000139364 Z M 4.468774 -0.000139364 " stroke="#3eb1fb" stroke-width="0.653614" stroke-opacity="1" stroke-miterlimit="4"/></g></g><g clip-path="url(#f08f80a4a1)"><g clip-path="url(#40cee68755)"><path stroke-linecap="butt" transform="matrix(6.884802, 0, 0, 6.884802, 204.719729, 613.462916)" fill="none" stroke-linejoin="miter" d="M 4.468487 0.000279952 C 2.000982 0.000279952 -0.000142226 2.000837 -0.000142226 4.468909 C -0.000142226 6.936981 2.000982 8.937538 4.468487 8.937538 C 6.936559 8.937538 8.937683 6.936981 8.937683 4.468909 C 8.937683 2.000837 6.936559 0.000279952 4.468487 0.000279952 Z M 4.468487 0.000279952 " stroke="#3eb1fb" stroke-width="0.653614" stroke-opacity="1" stroke-miterlimit="4"/></g></g></g></g></svg>